<svg width="3847" height="1567" xmlns="http://www.w3.org/2000/svg" xmlns:xlink="http://www.w3.org/1999/xlink" overflow="hidden"><defs><clipPath id="clip0"><rect x="277" y="433" width="3847" height="1567"/></clipPath></defs><g clip-path="url(#clip0)" transform="translate(-277 -433)"><path d="M367.5 764.001C367.5 739.424 387.424 719.5 412.001 719.5L744.999 719.5C769.576 719.5 789.5 739.424 789.5 764.001L789.5 941.999C789.5 966.576 769.576 986.5 744.999 986.5L412.001 986.5C387.424 986.5 367.5 966.576 367.5 941.999Z" stroke="#70AD47" stroke-width="4.58333" stroke-miterlimit="8" fill="#FFFFFF" fill-rule="evenodd"/><text font-family="Arial,Arial_MSFontService,sans-serif" font-weight="400" font-size="64" transform="matrix(1 0 0 1 437.422 876)">Rov<tspan font-size="64" x="131.771" y="0">client</tspan></text><path d="M1020.5 764.001C1020.5 739.424 1040.42 719.5 1065 719.5L1398 719.5C1422.58 719.5 1442.5 739.424 1442.5 764.001L1442.5 941.999C1442.5 966.576 1422.58 986.5 1398 986.5L1065 986.5C1040.42 986.5 1020.5 966.576 1020.5 941.999Z" stroke="#8FAADC" stroke-width="4.58333" stroke-miterlimit="8" fill="#FFFFFF" fill-rule="evenodd"/><text font-family="Arial,Arial_MSFontService,sans-serif" font-weight="400" font-size="64" transform="matrix(1 0 0 1 1076.51 876)">Rov server</text><path d="M2327.5 764.001C2327.5 739.424 2347.42 719.5 2372 719.5L2704 719.5C2728.58 719.5 2748.5 739.424 2748.5 764.001L2748.5 941.999C2748.5 966.576 2728.58 986.5 2704 986.5L2372 986.5C2347.42 986.5 2327.5 966.576 2327.5 941.999Z" stroke="#8FAADC" stroke-width="4.58333" stroke-miterlimit="8" fill="#FFFFFF" fill-rule="evenodd"/><text font-family="Arial,Arial_MSFontService,sans-serif" font-weight="400" font-size="64" transform="matrix(1 0 0 1 2450.66 837)">Visual <tspan font-size="64" x="-2.0166" y="77">server</tspan></text><path d="M1673.5 764.001C1673.5 739.424 1693.42 719.5 1718 719.5L2051 719.5C2075.58 719.5 2095.5 739.424 2095.5 764.001L2095.5 941.999C2095.5 966.576 2075.58 986.5 2051 986.5L1718 986.5C1693.42 986.5 1673.5 966.576 1673.5 941.999Z" stroke="#8FAADC" stroke-width="4.58333" stroke-miterlimit="8" fill="#FFFFFF" fill-rule="evenodd"/><text font-family="Arial,Arial_MSFontService,sans-serif" font-weight="400" font-size="64" transform="matrix(1 0 0 1 1802.69 837)">Mater <tspan font-size="64" x="-7.17285" y="77">server</tspan></text><path d="M2980.5 764.001C2980.5 739.424 3000.42 719.5 3025 719.5L3358 719.5C3382.58 719.5 3402.5 739.424 3402.5 764.001L3402.5 941.999C3402.5 966.576 3382.58 986.5 3358 986.5L3025 986.5C3000.42 986.5 2980.5 966.576 2980.5 941.999Z" stroke="#70AD47" stroke-width="4.58333" stroke-miterlimit="8" fill="#FFFFFF" fill-rule="evenodd"/><text font-family="Arial,Arial_MSFontService,sans-serif" font-weight="400" font-size="64" transform="matrix(1 0 0 1 3103.79 837)">Visual <tspan font-size="64" x="12.0313" y="77">client</tspan></text><path d="M1673.5 1423C1673.5 1398.42 1693.42 1378.5 1718 1378.5L2051 1378.5C2075.58 1378.5 2095.5 1398.42 2095.5 1423L2095.5 1601C2095.5 1625.58 2075.58 1645.5 2051 1645.5L1718 1645.5C1693.42 1645.5 1673.5 1625.58 1673.5 1601Z" stroke="#8FAADC" stroke-width="4.58333" stroke-miterlimit="8" fill="#FFFFFF" fill-rule="evenodd"/><text font-family="Arial,Arial_MSFontService,sans-serif" font-weight="400" font-size="64" transform="matrix(1 0 0 1 1799.85 1496)">RTSP <tspan font-size="64" x="-4.33118" y="77">server</tspan></text><path d="M2980.5 1423C2980.5 1398.42 3000.42 1378.5 3025 1378.5L3358 1378.5C3382.58 1378.5 3402.5 1398.42 3402.5 1423L3402.5 1601C3402.5 1625.58 3382.58 1645.5 3358 1645.5L3025 1645.5C3000.42 1645.5 2980.5 1625.58 2980.5 1601Z" stroke="#70AD47" stroke-width="4.58333" stroke-miterlimit="8" fill="#FFFFFF" fill-rule="evenodd"/><text font-family="Arial,Arial_MSFontService,sans-serif" font-weight="400" font-size="64" transform="matrix(1 0 0 1 3106.09 1496)">RTSP <tspan font-size="64" x="9.7168" y="77">client</tspan></text><path d="M3633.5 764.001C3633.5 739.424 3653.42 719.5 3678 719.5L4011 719.5C4035.58 719.5 4055.5 739.424 4055.5 764.001L4055.5 941.999C4055.5 966.576 4035.58 986.5 4011 986.5L3678 986.5C3653.42 986.5 3633.5 966.576 3633.5 941.999Z" stroke="#70AD47" stroke-width="4.58333" stroke-miterlimit="8" fill="#FFFFFF" fill-rule="evenodd"/><text font-family="Arial,Arial_MSFontService,sans-serif" font-weight="400" font-size="64" transform="matrix(1 0 0 1 3746.02 837)">Master <tspan font-size="64" x="22.9165" y="77">client</tspan></text><path d="M2095 1513.85 2977.09 1513.85 2977.09 1516.15 2095 1516.15ZM2950.16 1497.97 2979.36 1515 2950.16 1532.03C2949.62 1532.35 2948.91 1532.17 2948.6 1531.62 2948.28 1531.07 2948.46 1530.37 2949.01 1530.05L2976.51 1514.01 2976.51 1515.99 2949.01 1499.95C2948.46 1499.63 2948.28 1498.93 2948.6 1498.38 2948.91 1497.83 2949.62 1497.65 2950.16 1497.97Z" fill="#05080A"/><path d="M2.2687-1.14583 247.156-1.14583 247.156 654.271 3.41454 654.271 3.41454 651.979 246.011 651.979 244.865 653.125 244.865 0 246.011 1.14583 2.2687 1.14583ZM29.1914 17.0314-0.00531083 0 29.1914-17.0314C29.738-17.3503 30.4396-17.1656 30.7585-16.619 31.0774-16.0724 30.8927-15.3708 30.3461-15.0519L2.8461 0.989747 2.8461-0.989747 30.3461 15.0519C30.8927 15.3708 31.0774 16.0724 30.7585 16.619 30.4396 17.1656 29.738 17.3503 29.1914 17.0314ZM30.3372 670.156 1.14052 653.125 30.3372 636.094C30.8839 635.775 31.5855 635.959 31.9043 636.506 32.2232 637.053 32.0386 637.754 31.4919 638.073L3.99194 654.115 3.99194 652.135 31.4919 668.177C32.0386 668.496 32.2232 669.197 31.9043 669.744 31.5855 670.291 30.8839 670.475 30.3372 670.156Z" fill="#05080A" transform="matrix(6.12323e-17 1 1 -6.12323e-17 579 985)"/><path d="M0-1.14583 285.656-1.14583 285.656 1960.52 3.41454 1960.52 3.41454 1958.23 284.511 1958.23 283.365 1959.38 283.365 0 284.511 1.14583 0 1.14583ZM30.3372 1976.41 1.14052 1959.38 30.3372 1942.34C30.8839 1942.02 31.5855 1942.21 31.9043 1942.76 32.2232 1943.3 32.0386 1944 31.4919 1944.32L3.99194 1960.36 3.99194 1958.39 31.4919 1974.43C32.0386 1974.75 32.2232 1975.45 31.9043 1975.99 31.5855 1976.54 30.8839 1976.73 30.3372 1976.41Z" fill="#05080A" transform="matrix(-1.83697e-16 -1 -1 1.83697e-16 3844.38 719.146)"/><path d="M2.26498-1.14583 298.948-1.14583 298.948 654.271 3.41454 654.271 3.41454 651.979 297.802 651.979 296.656 653.125 296.656 0 297.802 1.14583 2.26498 1.14583ZM29.1914 17.0314-0.00531083 0 29.1914-17.0314C29.738-17.3503 30.4396-17.1656 30.7585-16.619 31.0774-16.0724 30.8927-15.3708 30.3461-15.0519L2.8461 0.989747 2.8461-0.989747 30.3461 15.0519C30.8927 15.3708 31.0774 16.0724 30.7585 16.619 30.4396 17.1656 29.738 17.3503 29.1914 17.0314ZM30.3372 670.156 1.14052 653.125 30.3372 636.094C30.8839 635.775 31.5855 635.959 31.9043 636.506 32.2232 637.053 32.0386 637.754 31.4919 638.073L3.99194 654.115 3.99194 652.135 31.4919 668.177C32.0386 668.496 32.2232 669.197 31.9043 669.744 31.5855 670.291 30.8839 670.475 30.3372 670.156Z" fill="#5B9BD5" transform="matrix(6.12323e-17 1 1 -6.12323e-17 2538 985)"/><path d="M0.0726051-1.14353 4.07275-0.889553 8.13992-0.179412 9.37788 0.19394 8.71618 2.388 7.54415 2.03453 7.67792 2.06626 3.74042 1.37876 3.86489 1.39353-0.0726051 1.14353ZM15.9346 2.58662 16.2354 2.71075 20.2614 4.81961 24.0572 7.22963 22.8288 9.16429 19.0733 6.77983 19.1558 6.82752 15.2183 4.76502 15.3129 4.80918 15.0604 4.70498ZM29.5789 11.6036 32.1468 13.8402 36.1354 17.6388 36.3987 17.9324 34.6928 19.4627 34.4596 19.2026 34.5223 19.2672 30.5848 15.5172 30.6224 15.5516 28.0738 13.3317ZM40.9762 23.1128 43.8952 26.5968 46.7293 30.3137 44.907 31.7032 42.0888 28.0073 42.1217 28.0484 39.2196 24.5846ZM50.7758 35.9196 51.5725 37.0428 55.3497 42.8345 55.8425 43.6752 53.8655 44.8341 53.3865 44.017 53.4152 44.0634 49.6652 38.3134 49.6904 38.3504 48.9066 37.2454ZM59.3193 49.6062 62.8152 55.5698 63.8844 57.6176 61.853 58.6783 60.7968 56.6553 60.824 56.7045 57.3423 50.7652ZM67.0664 63.7119 70.2153 69.7428 71.2347 71.9324 69.1572 72.8997 68.1487 70.7336 68.1718 70.7803 65.035 64.7726ZM74.1366 78.165 77.4237 85.2253 77.9718 86.5416 75.8562 87.4225 75.3172 86.1279 75.3362 86.1711 72.059 79.1323ZM80.6144 92.8885 84.1378 101.351 82.0221 102.232 78.4987 93.7693ZM86.6185 107.8 89.8793 116.367 87.7375 117.183 84.4767 108.616ZM92.2586 122.853 95.2668 131.512 93.102 132.264 90.0938 123.605ZM97.5229 138.006 98.0247 139.45 100.355 146.754 98.1716 147.451 95.8459 140.161 95.8551 140.189 95.3581 138.758ZM102.444 153.304 104.534 159.853 105.183 162.082 102.983 162.723 102.337 160.508 102.346 160.536 100.261 154.001ZM107.108 168.682 109.673 177.482 107.473 178.124 104.907 169.323ZM111.549 184.12 113.94 192.969 111.727 193.567 109.336 184.718ZM115.733 199.606 116.86 203.777 118.021 208.51 115.795 209.056 114.637 204.336 114.644 204.361 113.52 200.204ZM119.659 215.187 121.843 224.089 119.617 224.635 117.433 215.733ZM123.43 230.797 125.474 239.733 123.24 240.244 121.196 231.308ZM127.007 246.434 128.182 251.568 128.982 255.408 126.739 255.876 125.941 252.046 125.946 252.068 124.774 246.946ZM130.385 262.139 132.256 271.112 130.012 271.58 128.142 262.606ZM133.644 277.866 135.358 286.871 133.107 287.3 131.393 278.295ZM136.644 293.625 138.358 302.63 136.107 303.058 134.392 294.053ZM139.554 309.416 141.143 318.444 138.886 318.841 137.297 309.813ZM142.335 325.215 143.068 329.374 143.842 334.277 141.578 334.634 140.806 329.741 140.809 329.761 140.079 325.612ZM144.914 341.068 146.344 350.122 144.08 350.48 142.65 341.425ZM147.415 356.932 148.695 366.009 146.425 366.329 145.146 357.252ZM149.654 372.817 150.933 381.894 148.664 382.214 147.385 373.137ZM151.85 388.72 153.028 397.811 150.756 398.106 149.577 389.015ZM153.913 404.629 155.013 413.112 155.083 413.74 152.806 413.996 152.736 413.378 152.739 413.397 151.64 404.923ZM155.85 420.572 156.873 429.682 154.596 429.937 153.573 420.828ZM157.641 436.514 158.265 442.068 158.615 445.644 156.335 445.868 155.985 442.299 155.986 442.315 155.363 436.769ZM159.286 452.486 160.181 461.609 157.901 461.833 157.006 452.71ZM160.852 468.452 161.141 471.397 161.65 477.602 159.366 477.789 158.858 471.594 158.86 471.612 158.572 468.675ZM162.211 484.454 162.96 493.59 160.676 493.777 159.927 484.641ZM163.521 500.442 163.58 501.164 164.16 509.601 161.874 509.758 161.294 501.329 161.295 501.344 161.237 500.629ZM164.632 516.46 165.26 525.605 162.974 525.762 162.345 516.617ZM165.714 532.482 166.205 541.636 163.917 541.759 163.425 532.605ZM166.574 548.501 167.066 557.654 164.778 557.777 164.286 548.624ZM167.39 564.538 167.749 573.698 165.459 573.787 165.101 564.628ZM168.017 580.568 168.375 589.727 166.085 589.817 165.727 580.657ZM168.565 596.618 168.771 605.783 166.48 605.834 166.274 596.67ZM168.926 612.656 169.132 621.82 166.841 621.872 166.635 612.707ZM169.197 628.711 169.272 637.878 166.981 637.896 166.906 628.73ZM169.328 644.752 169.396 652.998 169.392 653.933 167.1 653.924 167.104 652.995 167.104 653.009 167.037 644.771ZM169.364 660.808 169.327 669.974 167.035 669.965 167.072 660.799ZM169.299 676.849 169.271 683.765 169.22 686.037 166.929 685.985 166.979 683.724 166.979 683.745 167.007 676.84ZM169.065 692.91 168.858 702.074 166.567 702.022 166.774 692.858ZM168.703 708.947 168.583 714.285 168.433 718.129 166.143 718.039 166.293 714.205 166.292 714.224 166.412 708.896ZM168.165 724.998 167.808 734.158 165.518 734.069 165.875 724.909ZM167.539 741.028 167.395 744.741 167.101 750.201 164.813 750.078 165.106 744.626 165.105 744.643 165.25 740.939ZM166.733 757.066 166.241 766.219 163.952 766.096 164.444 756.943ZM165.872 773.084 165.769 775.007 165.271 782.248 162.985 782.091 163.482 774.859 163.481 774.876 163.584 772.961ZM164.799 789.107 164.171 798.252 161.884 798.095 162.513 788.95ZM163.697 805.126 162.948 814.262 160.664 814.075 161.413 804.939ZM162.387 821.114 161.638 830.25 159.354 830.063 160.103 820.927ZM161.038 837.117 160.143 846.24 157.863 846.016 158.757 836.893ZM159.472 853.082 158.577 862.205 156.297 861.981 157.191 852.858ZM157.835 869.056 156.812 878.165 154.535 877.91 155.558 868.8ZM156.045 884.997 155.138 893.074 155.004 894.122 152.731 893.832 152.863 892.793 152.861 892.81 153.767 884.742ZM154.135 900.942 152.976 910.035 150.702 909.745 151.862 900.652ZM152.106 916.854 151.511 921.527 150.887 925.955 148.617 925.635 149.24 921.215 149.238 921.23 149.833 916.565ZM149.927 932.762 148.648 941.839 146.379 941.52 147.658 932.443ZM147.688 948.647 147.571 949.482 146.27 957.722 144.006 957.365 145.306 949.134 145.303 949.153 145.419 948.327ZM145.197 964.513 143.768 973.568 141.504 973.21 142.934 964.156ZM142.639 980.367 141.074 989.399 138.816 989.008 140.381 979.976ZM139.9 996.173 138.627 1003.52 138.304 1005.22 136.052 1004.79 136.374 1003.1 136.371 1003.12 137.642 995.782ZM137.018 1011.97 135.304 1020.98 133.052 1020.55 134.767 1011.54ZM134.018 1027.73 133.686 1029.47 132.188 1036.73 129.944 1036.27 131.44 1029.02 131.437 1029.04 131.767 1027.3ZM130.798 1043.46 128.944 1052.44 126.7 1051.98 128.553 1043ZM127.464 1059.18 125.441 1068.12 123.206 1067.61 125.228 1058.67ZM123.924 1074.82 122.99 1078.95 121.81 1083.76 119.584 1083.22 120.762 1078.41 120.757 1078.43 121.689 1074.32ZM120.171 1090.44 117.987 1099.34 115.762 1098.8 117.946 1089.89ZM116.271 1106.02 113.909 1114.88 111.695 1114.29 114.057 1105.43ZM112.138 1121.52 111.229 1124.93 109.643 1130.37 107.443 1129.73 109.025 1124.3 109.018 1124.33 109.924 1120.93ZM107.719 1136.97 105.153 1145.77 102.953 1145.13 105.519 1136.33ZM103.088 1152.36 100.327 1161.1 98.1413 1160.41 100.903 1151.67ZM98.2241 1167.67 95.2411 1176.34 93.0741 1175.59 96.0572 1166.93ZM93.0038 1182.84 91.8905 1186.08 89.8511 1191.48 87.7069 1190.67 89.7404 1185.28 89.729 1185.31 90.8369 1182.1ZM87.4249 1197.92 85.0653 1204.17 84.097 1206.5 81.9814 1205.62 82.9422 1203.31 82.9279 1203.35 85.2807 1197.11ZM81.4545 1212.84 78.0487 1221.02 77.8996 1221.34 75.8221 1220.38 75.9613 1220.08 75.9422 1220.12 79.3389 1211.96ZM74.9978 1227.58 71.1287 1235.89 69.0512 1234.92 72.9203 1226.61ZM67.9927 1242.05 63.8069 1250.21 61.7681 1249.16 65.9539 1241.01ZM60.3102 1256.21 56.1005 1263.35 55.602 1264.12 53.6764 1262.88 54.1622 1262.13 54.1377 1262.17 58.3357 1255.04ZM51.8261 1269.92 48.5509 1274.61 46.4341 1277.39 44.6118 1276 46.7138 1273.24 46.6853 1273.28 49.9466 1268.61ZM42.118 1282.79 40.8662 1284.31 37.0167 1288.54 35.8919 1289.67 34.2715 1288.05 35.3773 1286.94 35.3402 1286.98 39.1527 1282.79 39.1158 1282.83 40.3497 1281.34ZM30.8298 1294.43 29.2232 1295.83 25.2845 1298.81 23.3956 1300.04 22.1456 1298.12 24 1296.91 23.9328 1296.96 27.8078 1294.02 27.7475 1294.07 29.3247 1292.7ZM16.8126 1303.65 16.8125 1303.65 17.2556 1303.56 13.3255 1305.2 9.26491 1306.43 8.35777 1306.59 7.96365 1304.33 8.80294 1304.18 8.66915 1304.22 12.6066 1303.03 12.4944 1303.07 16.582 1301.35 16.8126 1301.35ZM31.4149 1321.37 1.1822 1306.25 29.2218 1287.37C29.7467 1287.02 30.4588 1287.16 30.8122 1287.69 31.1656 1288.21 31.0265 1288.92 30.5015 1289.28L4.09142 1307.05 3.96397 1305.08 32.4397 1319.32C33.0058 1319.6 33.2352 1320.29 32.9522 1320.85 32.6692 1321.42 31.9809 1321.65 31.4149 1321.37Z" fill="#5B9BD5" transform="matrix(-1.83697e-16 -1 -1 1.83697e-16 2538.25 719.146)"/><rect x="279.5" y="508.5" width="598" height="1252" stroke="#DBDBDB" stroke-width="4.58333" stroke-miterlimit="8" fill="none"/><rect x="954.5" y="508.5" width="1861" height="1253" stroke="#DBDBDB" stroke-width="4.58333" stroke-miterlimit="8" fill="none"/><rect x="2898.5" y="508.5" width="1223" height="1253" stroke="#DBDBDB" stroke-width="4.58333" stroke-miterlimit="8" fill="none"/><text font-family="Arial,Arial_MSFontService,sans-serif" font-weight="400" font-size="83" transform="matrix(1 0 0 1 445.042 1931)">STM32<tspan font-size="83" x="1094.03" y="0">Jetson AGX Xavier</tspan><tspan font-size="83" x="2745.87" y="0">Master Computer</tspan></text></g></svg>