<svg width="3353" height="1526" xmlns="http://www.w3.org/2000/svg" xmlns:xlink="http://www.w3.org/1999/xlink" overflow="hidden"><defs><clipPath id="clip0"><rect x="363" y="486" width="3353" height="1526"/></clipPath></defs><g clip-path="url(#clip0)" transform="translate(-363 -486)"><path d="M1528.5 1094.33C1528.5 1054.66 1560.66 1022.5 1600.33 1022.5L2141.67 1022.5C2181.34 1022.5 2213.5 1054.66 2213.5 1094.33L2213.5 1381.67C2213.5 1421.34 2181.34 1453.5 2141.67 1453.5L1600.33 1453.5C1560.66 1453.5 1528.5 1421.34 1528.5 1381.67Z" stroke="#70AD47" stroke-width="4.58333" stroke-miterlimit="8" fill="#FFFFFF" fill-rule="evenodd"/><text font-family="Arial,Arial_MSFontService,sans-serif" font-weight="400" font-size="83" transform="matrix(1 0 0 1 1737.66 1268)">STM32</text><path d="M2904.5 1094.33C2904.5 1054.66 2936.66 1022.5 2976.33 1022.5L3517.67 1022.5C3557.34 1022.5 3589.5 1054.66 3589.5 1094.33L3589.5 1381.67C3589.5 1421.34 3557.34 1453.5 3517.67 1453.5L2976.33 1453.5C2936.66 1453.5 2904.5 1421.34 2904.5 1381.67Z" stroke="#70AD47" stroke-width="4.58333" stroke-miterlimit="8" fill="#FFFFFF" fill-rule="evenodd"/><text font-family="Arial,Arial_MSFontService,sans-serif" font-weight="400" font-size="83" transform="matrix(1 0 0 1 3125.03 1268)">Jetson<tspan font-size="83" x="-194.792" y="675">binocular camera</tspan><tspan font-size="83" x="-146.667" y="-677">fishing camera</tspan><tspan font-size="83" x="-2699.58" y="-149">6</tspan><tspan font-size="83" x="-2653.75" y="-149">-</tspan>channel motor driver<tspan font-size="83" x="-2672.08" y="94">L</tspan><tspan font-size="83" x="-2626.25" y="94">umen</tspan><tspan font-size="83" x="-2397.08" y="94">Subsea Lights</tspan><tspan font-size="83" x="-1492.79" y="675">depth sensor</tspan></text><path d="M1.14583-1.05155e-06 1.14619 390.979-1.14547 390.979-1.14583 1.05155e-06ZM17.0317 364.059 0.000361164 393.255-17.0311 364.059C-17.3499 363.512-17.1653 362.81-16.6187 362.492-16.0721 362.173-15.3705 362.357-15.0516 362.904L0.990105 390.404-0.989389 390.404 15.0523 362.904C15.3711 362.357 16.0727 362.173 16.6194 362.491 17.166 362.81 17.3506 363.512 17.0317 364.059Z" fill="#5B9BD5" transform="matrix(1 0 0 -1 1871 1846.25)"/><path d="M1494.12 1337.77 1286.24 1333.2 1286.29 1330.9 1494.17 1335.48ZM1312.81 1349.67 1283.99 1332 1313.56 1315.62C1314.11 1315.31 1314.81 1315.51 1315.12 1316.06 1315.42 1316.62 1315.22 1317.31 1314.67 1317.62L1286.82 1333.05 1286.87 1331.07 1314.01 1347.72C1314.55 1348.05 1314.72 1348.75 1314.39 1349.29 1314.05 1349.83 1313.35 1350 1312.81 1349.67Z" fill="#5B9BD5"/><path d="M1494.12 1091.96 1286.24 1087.2 1286.29 1084.91 1494.17 1089.67ZM1312.79 1103.7 1283.99 1086 1313.57 1069.64C1314.13 1069.33 1314.82 1069.54 1315.13 1070.09 1315.44 1070.64 1315.24 1071.34 1314.68 1071.65L1286.82 1087.05 1286.87 1085.08 1313.99 1101.74C1314.53 1102.07 1314.7 1102.78 1314.37 1103.32 1314.04 1103.86 1313.33 1104.03 1312.79 1103.7Z" fill="#5B9BD5"/><text font-family="Arial,Arial_MSFontService,sans-serif" font-weight="400" font-size="83" transform="matrix(1 0 0 1 1795.06 591)">IMU</text><path d="M1872.15 627 1872.15 1019.81 1869.85 1019.81 1869.85 627ZM1888.03 992.892 1871 1022.09 1853.97 992.892C1853.65 992.345 1853.83 991.644 1854.38 991.325 1854.93 991.006 1855.63 991.191 1855.95 991.737L1871.99 1019.24 1870.01 1019.24 1886.05 991.737C1886.37 991.191 1887.07 991.006 1887.62 991.325 1888.17 991.644 1888.35 992.345 1888.03 992.892Z" fill="#5B9BD5"/><path d="M2226.61 1231.12 2890.78 1231.13 2890.78 1244.88 2226.61 1244.87ZM2264.4 1268 2212.97 1238 2264.4 1208C2267.68 1206.09 2271.89 1207.19 2273.8 1210.47 2275.71 1213.75 2274.61 1217.96 2271.33 1219.88L2230.08 1243.94 2230.08 1232.06 2271.33 1256.12C2274.61 1258.04 2275.71 1262.25 2273.8 1265.53 2271.89 1268.81 2267.68 1269.91 2264.4 1268ZM2853 1208 2904.43 1238 2853 1268C2849.72 1269.91 2845.51 1268.81 2843.59 1265.53 2841.68 1262.25 2842.79 1258.04 2846.07 1256.12L2887.32 1232.06 2887.32 1243.94 2846.07 1219.88C2842.79 1217.96 2841.68 1213.75 2843.59 1210.47 2845.51 1207.19 2849.72 1206.09 2853 1208Z" fill="#FFD966"/><path d="M3248.15 627 3248.15 1019.81 3245.85 1019.81 3245.85 627ZM3264.03 992.892 3247 1022.09 3229.97 992.892C3229.65 992.345 3229.83 991.644 3230.38 991.325 3230.93 991.006 3231.63 991.191 3231.95 991.737L3247.99 1019.24 3246.01 1019.24 3262.05 991.737C3262.37 991.191 3263.07 991.006 3263.62 991.325 3264.17 991.644 3264.35 992.345 3264.03 992.892Z" fill="#5B9BD5"/><path d="M1.14583-1.05155e-06 1.14619 390.979-1.14547 390.979-1.14583 1.05155e-06ZM17.0317 364.059 0.000361164 393.255-17.0311 364.059C-17.3499 363.512-17.1653 362.81-16.6187 362.492-16.0721 362.173-15.3705 362.357-15.0516 362.904L0.990105 390.404-0.989389 390.404 15.0523 362.904C15.3711 362.357 16.0727 362.173 16.6194 362.491 17.166 362.81 17.3506 363.512 17.0317 364.059Z" fill="#5B9BD5" transform="matrix(1 0 0 -1 3247 1846.25)"/></g></svg>