<?xml version="1.0" encoding="UTF-8" standalone="no"?>
<!DOCTYPE svg PUBLIC "-//W3C//DTD SVG 1.1//EN"
 "http://www.w3.org/Graphics/SVG/1.1/DTD/svg11.dtd">
<!-- Generated by graphviz version 2.40.1 (20161225.0304)
 -->
<!-- Title: G Pages: 1 -->
<svg width="464pt" height="400pt"
 viewBox="0.00 0.00 463.99 400.20" xmlns="http://www.w3.org/2000/svg" xmlns:xlink="http://www.w3.org/1999/xlink">
<g id="graph0" class="graph" transform="scale(1 1) rotate(0) translate(4 396.2)">
<title>G</title>
<polygon fill="#ffffff" stroke="transparent" points="-4,4 -4,-396.2 459.9874,-396.2 459.9874,4 -4,4"/>
<!-- l -->
<g id="node1" class="node">
<title>l</title>
<polygon fill="#fbb4ae" stroke="#f2f2f2" points="292,-319.2 238,-319.2 238,-283.2 292,-283.2 292,-319.2"/>
<text text-anchor="middle" x="265" y="-297" font-family="Times,serif" font-size="14.00" fill="#000000">land</text>
</g>
<!-- l&#45;&gt;l -->
<g id="edge1" class="edge">
<title>l&#45;&gt;l</title>
<path fill="none" stroke="#000000" d="M292.2408,-307.9434C302.0239,-308.0884 310,-305.8406 310,-301.2 310,-298.3721 307.0382,-296.4328 302.5105,-295.382"/>
<polygon fill="#000000" stroke="#000000" points="302.5146,-291.8683 292.2408,-294.4566 301.8863,-298.84 302.5146,-291.8683"/>
<text text-anchor="middle" x="339.3552" y="-297" font-family="Times,serif" font-size="14.00" fill="#000000">not landed</text>
</g>
<!-- g -->
<g id="node2" class="node">
<title>g</title>
<polygon fill="#b3cde3" stroke="#f2f2f2" points="54,-230.4 0,-230.4 0,-194.4 54,-194.4 54,-230.4"/>
<text text-anchor="middle" x="27" y="-208.2" font-family="Times,serif" font-size="14.00" fill="#000000">grasp</text>
</g>
<!-- l&#45;&gt;g -->
<g id="edge2" class="edge">
<title>l&#45;&gt;g</title>
<path fill="none" stroke="#000000" d="M237.6984,-291.0135C194.8622,-275.0309 111.803,-244.0408 63.756,-226.114"/>
<polygon fill="#000000" stroke="#000000" points="64.9414,-222.8207 54.3488,-222.6041 62.4944,-229.379 64.9414,-222.8207"/>
<text text-anchor="middle" x="186.6599" y="-252.6" font-family="Times,serif" font-size="14.00" fill="#000000">landed</text>
</g>
<!-- g&#45;&gt;g -->
<g id="edge3" class="edge">
<title>g&#45;&gt;g</title>
<path fill="none" stroke="#000000" d="M54.2408,-220.6419C64.0239,-220.8192 72,-218.0719 72,-212.4 72,-208.9437 69.0382,-206.5734 64.5105,-205.2891"/>
<polygon fill="#000000" stroke="#000000" points="64.5639,-201.7739 54.2408,-204.1581 63.7975,-208.7318 64.5639,-201.7739"/>
<text text-anchor="middle" x="96.1052" y="-208.2" font-family="Times,serif" font-size="14.00" fill="#000000">grasping</text>
</g>
<!-- c -->
<g id="node3" class="node">
<title>c</title>
<polygon fill="#decbe4" stroke="#f2f2f2" points="197,-124.8 143,-124.8 143,-88.8 197,-88.8 197,-124.8"/>
<text text-anchor="middle" x="170" y="-102.6" font-family="Times,serif" font-size="14.00" fill="#000000">cruise</text>
</g>
<!-- g&#45;&gt;c -->
<g id="edge4" class="edge">
<title>g&#45;&gt;c</title>
<path fill="none" stroke="#000000" d="M21.7364,-194.0978C18.5142,-178.7488 16.91,-157.1041 28.2418,-142.8 41.1049,-126.5629 95.1549,-116.3996 132.6661,-111.1635"/>
<polygon fill="#000000" stroke="#000000" points="133.3107,-114.6086 142.7597,-109.8163 132.3845,-107.6701 133.3107,-114.6086"/>
<text text-anchor="middle" x="140.3791" y="-163.8" font-family="Times,serif" font-size="14.00" fill="#000000">target collected/no more targets in ROI/</text>
<text text-anchor="middle" x="140.3791" y="-147" font-family="Times,serif" font-size="14.00" fill="#000000">time limit exceeded &amp; no more chances</text>
</g>
<!-- c&#45;&gt;l -->
<g id="edge5" class="edge">
<title>c&#45;&gt;l</title>
<path fill="none" stroke="#000000" d="M197.1068,-111.4783C215.4249,-116.1469 238.4756,-125.27 251,-142.8 278.3703,-181.1092 275.4865,-238.6745 270.5113,-272.838"/>
<polygon fill="#000000" stroke="#000000" points="267.0006,-272.623 268.8581,-283.0537 273.9107,-273.7413 267.0006,-272.623"/>
<text text-anchor="middle" x="329.2062" y="-208.2" font-family="Times,serif" font-size="14.00" fill="#000000">time limit exceeded</text>
</g>
<!-- a -->
<g id="node4" class="node">
<title>a</title>
<polygon fill="#fed9a6" stroke="#f2f2f2" points="197,-36 143,-36 143,0 197,0 197,-36"/>
<text text-anchor="middle" x="170" y="-13.8" font-family="Times,serif" font-size="14.00" fill="#000000">aim</text>
</g>
<!-- c&#45;&gt;a -->
<g id="edge6" class="edge">
<title>c&#45;&gt;a</title>
<path fill="none" stroke="#000000" d="M170,-88.4006C170,-76.2949 170,-60.2076 170,-46.4674"/>
<polygon fill="#000000" stroke="#000000" points="173.5001,-46.072 170,-36.072 166.5001,-46.0721 173.5001,-46.072"/>
<text text-anchor="middle" x="211.0053" y="-58.2" font-family="Times,serif" font-size="14.00" fill="#000000">target detected</text>
</g>
<!-- a&#45;&gt;l -->
<g id="edge7" class="edge">
<title>a&#45;&gt;l</title>
<path fill="none" stroke="#000000" d="M197.0502,-26.0458C214.7702,-32.0797 237.9111,-41.4558 256,-54 326.3804,-102.8071 356.4475,-114.776 388,-194.4 393.8944,-209.2747 396.009,-216.5488 388,-230.4 369.6306,-262.1688 331.0019,-280.9365 301.9053,-291.0778"/>
<polygon fill="#000000" stroke="#000000" points="300.4678,-287.8659 292.0598,-294.3123 302.6527,-294.5163 300.4678,-287.8659"/>
<text text-anchor="middle" x="417.4937" y="-163.8" font-family="Times,serif" font-size="14.00" fill="#000000">not landed</text>
<text text-anchor="middle" x="417.4937" y="-147" font-family="Times,serif" font-size="14.00" fill="#000000">but target lost</text>
</g>
<!-- a&#45;&gt;g -->
<g id="edge8" class="edge">
<title>a&#45;&gt;g</title>
<path fill="none" stroke="#000000" d="M142.8546,-30.454C106.1564,-48.9878 42.287,-87.6623 16,-142.8 9.8331,-155.7353 11.613,-171.4056 15.3585,-184.5995"/>
<polygon fill="#000000" stroke="#000000" points="12.044,-185.7244 18.5067,-194.1199 18.6901,-183.5267 12.044,-185.7244"/>
<text text-anchor="middle" x="73.6599" y="-102.6" font-family="Times,serif" font-size="14.00" fill="#000000">landed</text>
</g>
<!-- start -->
<g id="node5" class="node">
<title>start</title>
<polygon fill="#ccebc5" stroke="#f2f2f2" points="265,-392.2 225.7627,-374.2 265,-356.2 304.2373,-374.2 265,-392.2"/>
<text text-anchor="middle" x="265" y="-370" font-family="Times,serif" font-size="14.00" fill="#000000">start</text>
</g>
<!-- start&#45;&gt;l -->
<g id="edge9" class="edge">
<title>start&#45;&gt;l</title>
<path fill="none" stroke="#000000" d="M265,-356.1551C265,-348.0828 265,-338.3764 265,-329.3817"/>
<polygon fill="#000000" stroke="#000000" points="268.5001,-329.2903 265,-319.2904 261.5001,-329.2904 268.5001,-329.2903"/>
</g>
</g>
</svg>
