<svg width="2351" height="2082" xmlns="http://www.w3.org/2000/svg" xmlns:xlink="http://www.w3.org/1999/xlink" overflow="hidden"><defs><clipPath id="clip0"><rect x="811" y="118" width="2351" height="2082"/></clipPath></defs><g clip-path="url(#clip0)" transform="translate(-811 -118)"><rect x="2290.5" y="455.5" width="813" height="370" stroke="#70AD47" stroke-width="4.58333" stroke-miterlimit="8" fill="#FFFFFF"/><text font-family="Arial,Arial_MSFontService,sans-serif" font-weight="400" font-size="73" transform="matrix(1 0 0 1 2517.53 667)">Power Unit</text><rect x="1319.5" y="452.5" width="791" height="370" stroke="#70AD47" stroke-width="4.58333" stroke-miterlimit="8" fill="#FFFFFF"/><text font-family="Arial,Arial_MSFontService,sans-serif" font-weight="400" font-size="73" transform="matrix(1 0 0 1 1384.44 664)">Communication <tspan font-size="73" x="529.375" y="0">Unit</tspan></text><rect x="2290.5" y="1344.5" width="813" height="111" stroke="#A5A5A5" stroke-width="4.58333" stroke-miterlimit="8" fill="#FFFFFF"/><text font-family="Arial,Arial_MSFontService,sans-serif" font-weight="400" font-size="64" transform="matrix(1 0 0 1 2440.47 1423)">Binocular Camera</text><rect x="2290.5" y="1518.5" width="813" height="111" stroke="#A5A5A5" stroke-width="4.58333" stroke-miterlimit="8" fill="#FFFFFF"/><text font-family="Arial,Arial_MSFontService,sans-serif" font-weight="400" font-size="64" transform="matrix(1 0 0 1 2470.83 1596)">Fishing Camera</text><rect x="2290.5" y="1691.5" width="813" height="111" stroke="#A5A5A5" stroke-width="4.58333" stroke-miterlimit="8" fill="#FFFFFF"/><text font-family="Arial,Arial_MSFontService,sans-serif" font-weight="400" font-size="64" transform="matrix(1 0 0 1 2364.27 1769)">6<tspan font-size="64" x="35.521" y="0">-</tspan><tspan font-size="64" x="56.7188" y="0">Channel Motor Driver</tspan></text><rect x="2290.5" y="1864.5" width="813" height="111" stroke="#A5A5A5" stroke-width="4.58333" stroke-miterlimit="8" fill="#FFFFFF"/><text font-family="Arial,Arial_MSFontService,sans-serif" font-weight="400" font-size="64" transform="matrix(1 0 0 1 2387.19 1943)">L<tspan font-size="64" x="35.5208" y="0">umen</tspan><tspan font-size="64" x="213.125" y="0">Subsea Lights</tspan></text><rect x="2290.5" y="1171.5" width="813" height="111" stroke="#A5A5A5" stroke-width="4.58333" stroke-miterlimit="8" fill="#FFFFFF"/><text font-family="Arial,Arial_MSFontService,sans-serif" font-weight="400" font-size="64" transform="matrix(1 0 0 1 2500.91 1250)">Depth Sensor</text><rect x="1241.5" y="299.5" width="1918" height="655" stroke="#9DC3E6" stroke-width="4.58333" stroke-miterlimit="8" fill="none"/><rect x="1703" y="190" width="994" height="109" fill="#9DC3E6"/><text fill="#FFFFFF" font-family="Arial,Arial_MSFontService,sans-serif" font-weight="400" font-size="64" transform="matrix(1 0 0 1 1819.58 269)">Front Watertight Enclosure</text><rect x="1241.5" y="1134.5" width="1918" height="1063" stroke="#9DC3E6" stroke-width="4.58333" stroke-miterlimit="8" fill="none"/><rect x="1698" y="1005" width="1004" height="130" fill="#9DC3E6"/><text fill="#FFFFFF" font-family="Arial,Arial_MSFontService,sans-serif" font-weight="400" font-size="64" transform="matrix(1 0 0 1 1824.74 1083)">Rear Watertight Enclosure</text><path d="M1241.39 632.552 811.198 632.552 811.198 118.5 823.802 118.5 823.802 626.25 817.5 619.948 1241.39 619.948ZM1241.39 607.344 1260.3 626.25 1241.39 645.157 1222.49 626.25Z" fill="#FFC000"/><rect x="2290.5" y="2036.5" width="813" height="111" stroke="#A5A5A5" stroke-width="4.58333" stroke-miterlimit="8" fill="#FFFFFF"/><text font-family="Arial,Arial_MSFontService,sans-serif" font-weight="400" font-size="64" transform="matrix(1 0 0 1 2330.47 2115)">Inertial Measurement Unit</text><path d="M1423.8 822.5 1423.8 1481.27 1421.7 1481.27 1421.7 822.5ZM1419.6 822.5 1419.6 1481.27 1415.4 1481.27 1415.4 822.5ZM1413.3 822.5 1413.3 1481.27 1411.2 1481.27 1411.2 822.5Z" fill="#262626"/><text font-family="Arial,Arial_MSFontService,sans-serif" font-weight="400" font-size="55" transform="matrix(6.12323e-17 1 -1 6.12323e-17 1443.01 1168)">ethernet</text><text font-family="Arial,Arial_MSFontService,sans-serif" font-weight="400" font-size="55" transform="matrix(1 -2.44929e-16 2.44929e-16 1 849.582 692)">umbilical cable</text><path d="M0 0 90.1903 0.000360892" stroke="#A6A6A6" stroke-width="8.02083" stroke-linecap="round" stroke-miterlimit="8" fill="none" fill-rule="evenodd" transform="matrix(-1 0 0 1 2290.19 1227)"/><path d="M0 0 94.7696 351.014" stroke="#A6A6A6" stroke-width="8.02083" stroke-linecap="round" stroke-miterlimit="8" fill="none" fill-rule="evenodd" transform="matrix(1 0 0 -1 2105 1580.01)"/><path d="M0 0 90.1903 0.000360892" stroke="#A6A6A6" stroke-width="8.02083" stroke-linecap="round" stroke-miterlimit="8" fill="none" fill-rule="evenodd" transform="matrix(-1 0 0 1 2290.19 1400)"/><path d="M0 0 85.2901 0.000360892" stroke="#A6A6A6" stroke-width="8.02083" stroke-linecap="round" stroke-miterlimit="8" fill="none" fill-rule="evenodd" transform="matrix(-1 0 0 1 2290.29 1573)"/><path d="M2267.26 1750.21 2199.99 1750.01 2200 1747.34 2267.27 1747.54ZM2267.28 1744.86 2200 1744.66 2200.01 1741.99 2267.29 1742.19ZM2267.29 1742.19C2269.5 1742.2 2271.29 1744 2271.28 1746.21 2271.28 1748.43 2269.48 1750.22 2267.26 1750.21ZM2199.99 1750.01C2197.77 1750 2195.98 1748.2 2195.99 1745.99 2196 1743.77 2197.8 1741.98 2200.01 1741.99ZM2262.73 1732.44 2290.19 1746.27 2262.65 1759.94Z" fill="#A6A6A6"/><path d="M2267.26 1923.21 2199.99 1923.01C2197.77 1923 2195.98 1921.2 2195.99 1918.99 2196 1916.77 2197.8 1914.98 2200.01 1914.99L2267.29 1915.19C2269.5 1915.2 2271.29 1917 2271.28 1919.21 2271.28 1921.43 2269.48 1923.22 2267.26 1923.21ZM2262.73 1905.44 2290.19 1919.27 2262.65 1932.94Z" fill="#A6A6A6"/><path d="M2290.19 2093.27 2200 2093" stroke="#A6A6A6" stroke-width="8.02083" stroke-linecap="round" stroke-miterlimit="8" fill="none" fill-rule="evenodd"/><path d="M2107 1750 2201.18 2091.95" stroke="#A6A6A6" stroke-width="8.02083" stroke-linecap="round" stroke-miterlimit="8" fill="none" fill-rule="evenodd"/><path d="M2107 1718 2200.08 1918.84" stroke="#A6A6A6" stroke-width="8.02083" stroke-linecap="round" stroke-miterlimit="8" fill="none" fill-rule="evenodd"/><path d="M0 0 90.1899 215.384" stroke="#A6A6A6" stroke-width="8.02083" stroke-linecap="round" stroke-miterlimit="8" fill="none" fill-rule="evenodd" transform="matrix(1 0 0 -1 2108 1614.38)"/><path d="M0 0 93.243 75.0891" stroke="#A6A6A6" stroke-width="8.02083" stroke-linecap="round" stroke-miterlimit="8" fill="none" fill-rule="evenodd" transform="matrix(1 0 0 -1 2108 1649.09)"/><path d="M2107.28 1678.7 2201.94 1744.01 2200.42 1746.21 2105.76 1680.9ZM2104.24 1683.1 2198.91 1748.41 2197.39 1750.61 2102.72 1685.3ZM2102.72 1685.3C2100.9 1684.04 2100.44 1681.55 2101.7 1679.72 2102.96 1677.9 2105.45 1677.44 2107.28 1678.7ZM2201.94 1744.01C2203.77 1745.27 2204.22 1747.77 2202.97 1749.59 2201.71 1751.41 2199.21 1751.87 2197.39 1750.61Z" fill="#A6A6A6"/><path d="M1.51972e-05-4.01042 72.3196-4.01014C74.5345-4.01013 76.33-2.2146 76.33 0.000289248 76.33 2.21518 74.5345 4.0107 72.3196 4.01069L-1.51972e-05 4.01042C-2.21491 4.01041-4.01043 2.21488-4.01042-1.51972e-05-4.01041-2.21491-2.21488-4.01043 1.51972e-05-4.01042ZM67.7363-13.7497 95.2363 0.000360892 67.7362 13.7503Z" fill="#A6A6A6" transform="matrix(-1 0 0 1 2105.24 1582)"/><path d="M1.51972e-05-4.01042 72.3196-4.01014C74.5345-4.01013 76.33-2.2146 76.33 0.000289248 76.33 2.21518 74.5345 4.0107 72.3196 4.01069L-1.51972e-05 4.01042C-2.21491 4.01041-4.01043 2.21488-4.01042-1.51972e-05-4.01041-2.21491-2.21488-4.01043 1.51972e-05-4.01042ZM67.7363-13.7497 95.2363 0.000360892 67.7362 13.7503Z" fill="#A6A6A6" transform="matrix(-1 0 0 1 2105.24 1615)"/><path d="M1.51972e-05-4.01042 72.3196-4.01014C74.5345-4.01013 76.33-2.2146 76.33 0.000289248 76.33 2.21518 74.5345 4.0107 72.3196 4.01069L-1.51972e-05 4.01042C-2.21491 4.01041-4.01043 2.21488-4.01042-1.51972e-05-4.01041-2.21491-2.21488-4.01043 1.51972e-05-4.01042ZM67.7363-13.7497 95.2363 0.000360892 67.7362 13.7503Z" fill="#A6A6A6" transform="matrix(-1 0 0 1 2105.24 1649)"/><path d="M1.51972e-05-4.01042 72.3196-4.01014 72.3196-1.33653 5.06575e-06-1.33681ZM-5.06575e-06 1.33681 72.3196 1.33708 72.3196 4.01069-1.51972e-05 4.01042ZM-1.51972e-05 4.01042C-2.21491 4.01041-4.01043 2.21488-4.01042-1.51972e-05-4.01041-2.21491-2.21488-4.01043 1.51972e-05-4.01042ZM72.3196-4.01014C74.5345-4.01013 76.33-2.2146 76.33 0.000289248 76.33 2.21518 74.5345 4.0107 72.3196 4.01069ZM67.7363-13.7497 95.2363 0.000360892 67.7362 13.7503Z" fill="#A6A6A6" transform="matrix(-1 0 0 1 2105.24 1683)"/><path d="M0 0 95.2363 0.000360892" stroke="#A6A6A6" stroke-width="8.02083" stroke-linecap="round" stroke-miterlimit="8" fill="none" fill-rule="evenodd" transform="matrix(-1 0 0 1 2105.24 1716)"/><path d="M1.51972e-05-4.01042 72.3196-4.01014C74.5345-4.01013 76.33-2.2146 76.33 0.000289248 76.33 2.21518 74.5345 4.0107 72.3196 4.01069L-1.51972e-05 4.01042C-2.21491 4.01041-4.01043 2.21488-4.01042-1.51972e-05-4.01041-2.21491-2.21488-4.01043 1.51972e-05-4.01042ZM67.7363-13.7497 95.2363 0.000360892 67.7362 13.7503Z" fill="#A6A6A6" transform="matrix(-1 0 0 1 2105.24 1750)"/><rect x="1319.5" y="1481.5" width="688" height="370" stroke="#70AD47" stroke-width="4.58333" stroke-miterlimit="8" fill="#FFFFFF"/><text font-family="Arial,Arial_MSFontService,sans-serif" font-weight="400" font-size="73" transform="matrix(1 0 0 1 1469.31 1693)">Control Unit<tspan font-size="41" x="715.256" y="96">PWM</tspan><tspan font-size="41" x="715.256" y="277">PWM</tspan><tspan font-size="41" x="702.152" y="441">UART</tspan><tspan font-size="41" x="723.276" y="-129">USB</tspan><tspan font-size="41" x="724.668" y="-308">USB</tspan><tspan font-size="41" x="703.29" y="-479">UART</tspan></text></g></svg>